<?xml version="1.0" encoding="UTF-8"?>
<!DOCTYPE svg PUBLIC "-//W3C//DTD SVG 1.1//EN" "http://www.w3.org/Graphics/SVG/1.1/DTD/svg11.dtd">
<!-- Creator: CorelDRAW X8 -->
<svg xmlns="http://www.w3.org/2000/svg" xml:space="preserve" width="100%" height="100%" version="1.1" style="shape-rendering:geometricPrecision; text-rendering:geometricPrecision; image-rendering:optimizeQuality; fill-rule:evenodd; clip-rule:evenodd"
viewBox="0 0 8500 11000"
 xmlns:xlink="http://www.w3.org/1999/xlink">
 <defs>
  <style type="text/css">
   <![CDATA[
    .str1 {stroke:#E6E7E8;stroke-width:34.7205;stroke-opacity:0.200000}
    .str3 {stroke:#E6E7E8;stroke-width:6.94488;stroke-opacity:0.200000}
    .str0 {stroke:#E6E7E8;stroke-width:3;stroke-opacity:0.200000}
    .str2 {stroke:#E6E7E8;stroke-width:34.7205;stroke-opacity:0.380392}
    .fil1 {fill:none}
    .fil5 {fill:none}
    .fil3 {fill:#E9E9E9}
    .fil4 {fill:#E9E9E9;fill-rule:nonzero}
    .fil6 {fill:#E9E9E9;fill-opacity:0.200000}
    .fil0 {fill:#E9E9E9;fill-rule:nonzero;fill-opacity:0.200000}
    .fil2 {fill:#E9E9E9;fill-rule:nonzero;fill-opacity:0.200000}
   ]]>
  </style>
 </defs>
 <g id="Layer_x0020_1">
  <metadata id="CorelCorpID_0Corel-Layer"/>
  <polygon class="fil0 str0" points="12956,3524 12557,3367 12956,3125 12956,3162 12628,3361 12956,3490 "/>
  <polygon class="fil0 str0" points="12960,14955 12561,14797 12960,14555 12960,14592 12632,14791 12960,14921 "/>
  <path class="fil1 str1" d="M12626 1447c0,-15 -12,-27 -26,-27 -15,0 -27,12 -27,27 0,29 24,53 53,53 30,0 53,-24 53,-53 0,-44 -35,-80 -79,-80 -44,0 -79,36 -79,80 0,59 47,107 105,107 59,0 106,-48 106,-107 0,-74 -59,-134 -132,-134 -73,0 -132,60 -132,134 0,88 71,160 158,160 88,0 159,-72 159,-160 0,-103 -83,-187 -185,-187 -102,0 -185,84 -185,187 0,118 95,213 211,213 117,0 212,-95 212,-213"/>
  <path class="fil1 str1" d="M12630 12877c0,-15 -12,-26 -26,-26 -15,0 -27,11 -27,26 0,30 24,54 53,54 29,0 53,-24 53,-54 0,-44 -35,-80 -79,-80 -44,0 -79,36 -79,80 0,59 47,107 105,107 59,0 106,-48 106,-107 0,-73 -59,-133 -132,-133 -73,0 -132,60 -132,133 0,89 71,160 158,160 88,0 159,-71 159,-160 0,-103 -83,-187 -185,-187 -102,0 -185,84 -185,187 0,118 94,214 211,214 117,0 212,-96 212,-214"/>
  <polygon class="fil1 str1" points="12624,8907 12731,8960 12839,9014 12839,9121 12839,9228 12731,9282 12624,9336 12516,9282 12408,9228 12408,9121 12408,9014 12516,8960 "/>
  <polygon class="fil1 str1" points="12628,20337 12735,20391 12843,20444 12843,20552 12843,20659 12735,20712 12628,20766 12520,20712 12412,20659 12412,20552 12412,20444 12520,20391 "/>
  <path class="fil2 str0" d="M12952 713l-252 -96 14 -275 238 -64 0 435zm-16 -39l0 -359 -191 52 -12 229 203 78z"/>
  <path class="fil2 str0" d="M12956 12144l-252 -97 14 -275 238 -63 0 435zm-16 -40l0 -358 -191 51 -12 229 203 78z"/>
  <g id="_2622042515776">
   <polygon class="fil3" points="3787,-2803 3591,-2574 3548,-2593 3728,-2803 "/>
   <path class="fil4" d="M3791 -2803c-66,78 -133,156 -200,234l-48 -23c60,-70 120,-141 180,-211l10 0 -179 209 36 16 192 -225 9 0z"/>
   <polygon class="fil3" points="3728,-2803 3933,-2564 3975,-2583 3787,-2803 "/>
   <path class="fil4" d="M3733 -2803l201 235 36 -16 -188 -219 10 0c63,74 126,147 189,221l-49 23 -208 -244 9 0z"/>
  </g>
  <polygon class="fil1 str1" points="4434,986 4436,1200 4437,1415 4222,1330 4007,1245 4220,1116 "/>
  <polygon class="fil1 str1" points="4438,12416 4440,12631 4441,12845 4226,12760 4011,12676 4224,12546 "/>
  <polygon class="fil1 str1" points="770,3419 772,3634 774,3848 559,3764 343,3679 557,3549 "/>
  <polygon class="fil1 str1" points="774,14850 776,15064 778,15279 563,15194 347,15109 561,14979 "/>
  <polygon class="fil1 str1" points="391,5518 392,5732 394,5947 179,5862 -36,5777 177,5647 "/>
  <polygon class="fil1 str1" points="395,16948 396,17163 398,17377 183,17292 -32,17207 181,17078 "/>
  <polygon class="fil1 str1" points="6447,8482 6449,8697 6450,8911 6235,8826 6020,8741 6233,8612 "/>
  <polygon class="fil1 str1" points="6451,19913 6453,20127 6454,20342 6239,20257 6024,20172 6237,20042 "/>
  <polygon class="fil1 str1" points="3957,7384 3959,7598 3960,7813 3745,7728 3530,7643 3743,7513 "/>
  <polygon class="fil1 str1" points="3961,18814 3963,19029 3964,19243 3749,19158 3534,19073 3747,18944 "/>
  <polygon class="fil1 str1" points="8056,3714 8058,3929 8060,4143 7844,4059 7629,3974 7843,3844 "/>
  <polygon class="fil1 str1" points="8060,15145 8062,15359 8064,15574 7848,15489 7633,15404 7847,15274 "/>
  <polygon class="fil1 str1" points="9892,5989 9893,6203 9895,6418 9680,6333 9465,6248 9678,6118 "/>
  <polygon class="fil1 str1" points="9896,17419 9897,17633 9899,17848 9684,17763 9468,17678 9682,17549 "/>
  <polygon class="fil1 str1" points="12681,6756 12683,6971 12685,7185 12469,7100 12254,7016 12468,6886 "/>
  <polygon class="fil1 str1" points="12685,18187 12687,18401 12689,18616 12473,18531 12258,18446 12472,18316 "/>
  <polygon class="fil1 str1" points="-1465,5741 -1463,5955 -1461,6170 -1677,6085 -1892,6000 -1678,5870 "/>
  <polygon class="fil1 str1" points="-1461,17171 -1459,17386 -1457,17600 -1673,17515 -1888,17430 -1674,17301 "/>
  <polygon class="fil1 str1" points="-4926,9824 -4924,10038 -4923,10253 -5138,10168 -5353,10083 -5140,9953 "/>
  <polygon class="fil1 str1" points="-4922,21254 -4921,21469 -4919,21683 -5134,21598 -5349,21513 -5136,21384 "/>
  <polygon class="fil1 str1" points="-4855,3755 -4853,3970 -4851,4184 -5066,4099 -5282,4015 -5068,3885 "/>
  <polygon class="fil1 str1" points="-4851,15186 -4849,15400 -4847,15615 -5063,15530 -5278,15445 -5064,15315 "/>
  <polygon class="fil1 str1" points="-2147,-918 -2145,-704 -2144,-489 -2359,-574 -2574,-659 -2361,-788 "/>
  <polygon class="fil1 str1" points="-2143,10512 -2141,10727 -2140,10941 -2355,10857 -2570,10772 -2357,10642 "/>
  <polygon class="fil1 str1" points="4522,5337 4375,5493 4227,5649 4130,5439 4034,5229 4278,5283 "/>
  <polygon class="fil1 str1" points="4526,16767 4378,16923 4231,17079 4134,16869 4038,16660 4282,16713 "/>
  <polygon class="fil1 str1" points="9103,9149 8955,9305 8808,9461 8711,9251 8615,9041 8859,9095 "/>
  <polygon class="fil1 str1" points="9107,20579 8959,20735 8812,20891 8715,20681 8618,20472 8863,20525 "/>
  <path class="fil1 str1" d="M-4966 -786c119,0 215,96 215,214 0,119 -96,215 -215,215 -119,0 -215,-96 -215,-215 0,-118 96,-214 215,-214z"/>
  <path class="fil1 str1" d="M-4962 10644c119,0 215,96 215,215 0,118 -96,214 -215,214 -119,0 -215,-96 -215,-214 0,-119 96,-215 215,-215z"/>
  <path class="fil1 str1" d="M-849 3168c119,0 215,96 215,214 0,119 -96,215 -215,215 -119,0 -215,-96 -215,-215 0,-118 96,-214 215,-214z"/>
  <path class="fil1 str1" d="M-845 14598c119,0 215,96 215,214 0,119 -96,215 -215,215 -119,0 -215,-96 -215,-215 0,-118 96,-214 215,-214z"/>
  <path class="fil1 str1" d="M-6372 6035c119,0 215,96 215,214 0,119 -96,215 -215,215 -119,0 -215,-96 -215,-215 0,-118 96,-214 215,-214z"/>
  <path class="fil1 str1" d="M-6368 17465c119,0 215,96 215,215 0,118 -96,214 -215,214 -119,0 -215,-96 -215,-214 0,-119 96,-215 215,-215z"/>
  <path class="fil1 str1" d="M-6288 9924c119,0 215,96 215,215 0,118 -96,214 -215,214 -119,0 -215,-96 -215,-214 0,-119 96,-215 215,-215z"/>
  <path class="fil1 str1" d="M-6284 21355c119,0 215,96 215,214 0,119 -96,215 -215,215 -119,0 -216,-96 -216,-215 0,-118 97,-214 216,-214z"/>
  <path class="fil1 str1" d="M-3728 7722c119,0 216,96 216,215 0,118 -97,214 -216,214 -118,0 -215,-96 -215,-214 0,-119 97,-215 215,-215z"/>
  <path class="fil1 str1" d="M-3724 19152c119,0 216,96 216,215 0,119 -97,215 -216,215 -119,0 -215,-96 -215,-215 0,-119 96,-215 215,-215z"/>
  <path class="fil1 str1" d="M-4397 2233c119,0 215,96 215,215 0,118 -96,214 -215,214 -119,0 -215,-96 -215,-214 0,-119 96,-215 215,-215z"/>
  <path class="fil1 str1" d="M-4393 13664c119,0 215,96 215,214 0,119 -96,215 -215,215 -119,0 -215,-96 -215,-215 0,-118 96,-214 215,-214z"/>
  <path class="fil1 str1" d="M2063 -720c119,0 215,96 215,215 0,118 -96,215 -215,215 -119,0 -215,-97 -215,-215 0,-119 96,-215 215,-215z"/>
  <path class="fil1 str1" d="M2067 10711c119,0 215,96 215,214 0,119 -96,215 -215,215 -119,0 -215,-96 -215,-215 0,-118 96,-214 215,-214z"/>
  <path class="fil1 str1" d="M7787 932c119,0 215,96 215,215 0,118 -96,214 -215,214 -119,0 -215,-96 -215,-214 0,-119 96,-215 215,-215z"/>
  <path class="fil1 str1" d="M7791 12362c119,0 215,96 215,215 0,118 -96,215 -215,215 -119,0 -215,-97 -215,-215 0,-119 96,-215 215,-215z"/>
  <path class="fil1 str1" d="M3134 2450c119,0 216,96 216,215 0,118 -97,214 -216,214 -119,0 -215,-96 -215,-214 0,-119 96,-215 215,-215z"/>
  <path class="fil1 str1" d="M3138 13881c119,0 215,96 215,214 0,119 -96,215 -215,215 -119,0 -215,-96 -215,-215 0,-118 96,-214 215,-214z"/>
  <path class="fil1 str1" d="M11586 2167c119,0 215,96 215,214 0,119 -96,215 -215,215 -119,0 -215,-96 -215,-215 0,-118 96,-214 215,-214z"/>
  <path class="fil1 str1" d="M11590 13597c119,0 215,96 215,214 0,119 -96,215 -215,215 -119,0 -215,-96 -215,-215 0,-118 96,-214 215,-214z"/>
  <path class="fil1 str1" d="M5814 5837c119,0 216,96 216,214 0,119 -97,215 -216,215 -119,0 -215,-96 -215,-215 0,-118 96,-214 215,-214z"/>
  <path class="fil1 str1" d="M5818 17267c119,0 216,96 216,215 0,118 -97,214 -216,214 -119,0 -215,-96 -215,-214 0,-119 96,-215 215,-215z"/>
  <path class="fil1 str1" d="M11536 6120c119,0 215,97 215,215 0,119 -96,215 -215,215 -119,0 -215,-96 -215,-215 0,-118 96,-215 215,-215z"/>
  <path class="fil1 str1" d="M11540 17551c119,0 215,96 215,214 0,119 -96,215 -215,215 -119,0 -216,-96 -216,-215 0,-118 97,-214 216,-214z"/>
  <path class="fil1 str1" d="M9143 4319c118,0 215,96 215,214 0,119 -97,215 -215,215 -119,0 -216,-96 -216,-215 0,-118 97,-214 216,-214z"/>
  <path class="fil1 str1" d="M9146 15749c119,0 216,96 216,215 0,118 -97,214 -216,214 -118,0 -215,-96 -215,-214 0,-119 97,-215 215,-215z"/>
  <path class="fil1 str1" d="M9284 7888c119,0 215,96 215,214 0,119 -96,215 -215,215 -119,0 -215,-96 -215,-215 0,-118 96,-214 215,-214z"/>
  <path class="fil1 str1" d="M9288 19318c119,0 215,96 215,215 0,118 -96,214 -215,214 -119,0 -215,-96 -215,-214 0,-119 96,-215 215,-215z"/>
  <path class="fil2 str0" d="M10538 21689c64,0 121,26 163,68 42,41 68,99 68,163l-32 0c0,-55 -22,-105 -58,-141 -36,-36 -86,-58 -141,-58 -55,0 -105,22 -141,58 -36,36 -59,86 -59,141l-31 0c0,-64 26,-122 67,-163 42,-42 100,-68 164,-68z"/>
  <path class="fil1 str1" d="M-353 6619c118,0 215,96 215,215 0,118 -97,214 -215,214 -119,0 -216,-96 -216,-214 0,-119 97,-215 216,-215z"/>
  <path class="fil1 str1" d="M-350 18049c119,0 216,96 216,215 0,118 -97,215 -216,215 -118,0 -215,-97 -215,-215 0,-119 97,-215 215,-215z"/>
  <path class="fil1 str1" d="M5413 10068c119,0 215,96 215,215 0,118 -96,214 -215,214 -119,0 -216,-96 -216,-214 0,-119 97,-215 216,-215z"/>
  <path class="fil1 str1" d="M5632 21262c119,0 215,96 215,214 0,119 -96,215 -215,215 -119,0 -215,-96 -215,-215 0,-118 96,-214 215,-214z"/>
  <path class="fil1 str1" d="M2625 9739c119,0 216,96 216,215 0,118 -97,214 -216,214 -119,0 -215,-96 -215,-214 0,-119 96,-215 215,-215z"/>
  <path class="fil1 str1" d="M2629 21169c119,0 215,97 215,215 0,119 -96,215 -215,215 -119,0 -215,-96 -215,-215 0,-118 96,-215 215,-215z"/>
  <path class="fil1 str1" d="M7208 8855c119,0 216,97 216,215 0,119 -97,215 -216,215 -118,0 -215,-96 -215,-215 0,-118 97,-215 215,-215z"/>
  <path class="fil1 str1" d="M7212 20286c119,0 216,96 216,214 0,119 -97,215 -216,215 -119,0 -215,-96 -215,-215 0,-118 96,-214 215,-214z"/>
  <path class="fil1 str1" d="M3049 7889c119,0 215,96 215,214 0,119 -96,215 -215,215 -119,0 -215,-96 -215,-215 0,-118 96,-214 215,-214z"/>
  <path class="fil1 str1" d="M3053 19319c119,0 215,96 215,215 0,118 -96,214 -215,214 -119,0 -216,-96 -216,-214 0,-119 97,-215 216,-215z"/>
  <path class="fil1 str1" d="M341 9676c119,0 215,96 215,214 0,119 -96,215 -215,215 -119,0 -215,-96 -215,-215 0,-118 96,-214 215,-214z"/>
  <path class="fil1 str1" d="M345 21106c119,0 215,96 215,214 0,119 -96,215 -215,215 -119,0 -215,-96 -215,-215 0,-118 96,-214 215,-214z"/>
  <polygon class="fil1 str1" points="-3376,1399 -3325,1564 -3160,1563 -3294,1664 -3243,1829 -3376,1727 -3509,1829 -3458,1664 -3591,1563 -3426,1564 "/>
  <polygon class="fil1 str1" points="-3372,12830 -3321,12994 -3157,12994 -3290,13095 -3239,13259 -3372,13157 -3505,13259 -3454,13095 -3587,12994 -3422,12994 "/>
  <polygon class="fil1 str1" points="5929,1299 5979,1464 6144,1463 6011,1564 6062,1728 5929,1627 5796,1728 5847,1564 5714,1463 5878,1464 "/>
  <polygon class="fil1 str1" points="5933,12730 5983,12894 6148,12894 6015,12995 6066,13159 5933,13057 5800,13159 5851,12995 5717,12894 5882,12894 "/>
  <polygon class="fil1 str1" points="6969,6153 7019,6318 7184,6317 7051,6418 7102,6583 6969,6481 6836,6583 6887,6418 6753,6317 6918,6318 "/>
  <polygon class="fil1 str1" points="6973,17584 7023,17748 7188,17748 7054,17849 7106,18013 6973,17911 6840,18013 6891,17849 6757,17748 6922,17748 "/>
  <polygon class="fil1 str1" points="11418,3802 11469,3966 11634,3966 11500,4067 11551,4231 11418,4129 11285,4231 11336,4067 11203,3966 11368,3966 "/>
  <polygon class="fil1 str1" points="11422,15232 11473,15396 11637,15396 11504,15497 11555,15661 11422,15560 11289,15661 11340,15497 11207,15396 11372,15396 "/>
  <polygon class="fil1 str1" points="10113,8723 10163,8888 10328,8887 10195,8988 10246,9153 10113,9051 9980,9153 10031,8988 9898,8887 10062,8888 "/>
  <polygon class="fil1 str1" points="10117,20154 10167,20318 10332,20318 10199,20419 10250,20583 10117,20481 9984,20583 10035,20419 9902,20318 10066,20318 "/>
  <polygon class="fil2 str0" points="-3995,21644 -3948,21797 -3795,21797 -3785,21825 -3910,21920 -3910,21920 -3943,21920 -3947,21908 -3842,21828 -3971,21829 -3975,21817 -4010,21702 -4049,21829 -4178,21828 -4073,21908 -4077,21920 -4110,21920 -4110,21920 -4235,21825 -4225,21797 -4072,21797 -4025,21644 "/>
  <polygon class="fil1 str1" points="-1727,9439 -1677,9604 -1512,9603 -1646,9705 -1594,9869 -1727,9767 -1860,9869 -1809,9705 -1943,9603 -1778,9604 "/>
  <polygon class="fil1 str1" points="-1723,20870 -1673,21034 -1508,21034 -1642,21135 -1590,21299 -1723,21197 -1857,21299 -1805,21135 -1939,21034 -1774,21034 "/>
  <polygon class="fil2 str0" points="-6659,4527 -6611,4680 -6458,4680 -6449,4708 -6573,4802 -6525,4956 -6550,4973 -6674,4879 -6692,4893 -6692,4853 -6674,4839 -6571,4918 -6610,4791 -6505,4711 -6635,4712 -6638,4700 -6674,4585 -6692,4646 -6692,4538 -6689,4527 "/>
  <polygon class="fil2 str0" points="-6655,15957 -6607,16110 -6454,16110 -6445,16138 -6569,16233 -6522,16386 -6546,16404 -6670,16309 -6688,16323 -6688,16284 -6670,16269 -6567,16348 -6606,16221 -6502,16142 -6631,16142 -6634,16131 -6670,16016 -6688,16076 -6688,15969 -6685,15957 "/>
  <polygon class="fil1 str1" points="-12,2133 38,2298 203,2297 69,2399 121,2563 -12,2461 -146,2563 -94,2399 -228,2297 -63,2298 "/>
  <polygon class="fil1 str1" points="-9,13564 42,13728 207,13728 73,13829 124,13993 -9,13891 -142,13993 -90,13829 -224,13728 -59,13728 "/>
  <polygon class="fil1 str1" points="-498,5053 -447,5217 -283,5217 -416,5318 -365,5482 -498,5380 -631,5482 -580,5318 -713,5217 -548,5217 "/>
  <polygon class="fil1 str1" points="-494,16483 -443,16648 -279,16647 -412,16748 -361,16913 -494,16811 -627,16913 -576,16748 -709,16647 -545,16648 "/>
  <polygon class="fil1 str1" points="-5052,974 -4983,1080 -4914,1186 -4993,1284 -5073,1382 -5191,1336 -5309,1291 -5303,1165 -5296,1039 -5174,1007 "/>
  <polygon class="fil1 str1" points="-5048,12404 -4979,12510 -4910,12616 -4990,12714 -5069,12812 -5187,12767 -5305,12722 -5299,12596 -5292,12470 -5170,12437 "/>
  <polygon class="fil1 str1" points="2872,563 2940,669 3009,775 2930,873 2850,971 2732,926 2614,881 2620,755 2627,629 2749,596 "/>
  <polygon class="fil1 str1" points="2875,11994 2944,12100 3013,12205 2934,12303 2854,12401 2736,12356 2618,12311 2624,12185 2631,12059 2753,12026 "/>
  <polygon class="fil1 str1" points="11780,8003 11849,8109 11918,8215 11838,8313 11759,8411 11641,8366 11523,8320 11529,8194 11536,8068 11658,8036 "/>
  <polygon class="fil1 str1" points="11784,19434 11853,19539 11922,19645 11842,19743 11763,19841 11645,19796 11527,19751 11533,19625 11540,19499 11662,19466 "/>
  <polygon class="fil1 str1" points="9694,93 9763,198 9832,304 9752,402 9672,500 9554,455 9436,410 9443,284 9449,158 9572,125 "/>
  <polygon class="fil1 str1" points="9698,11523 9767,11629 9836,11735 9756,11833 9676,11931 9558,11885 9440,11840 9447,11714 9453,11588 9576,11556 "/>
  <polygon class="fil1 str1" points="-3868,5117 -3799,5223 -3730,5329 -3810,5427 -3889,5525 -4008,5479 -4126,5434 -4119,5308 -4112,5182 -3990,5150 "/>
  <polygon class="fil1 str1" points="-3864,16547 -3795,16653 -3726,16759 -3806,16857 -3886,16955 -4004,16910 -4122,16865 -4115,16739 -4108,16613 -3986,16580 "/>
  <polygon class="fil1 str1" points="-1813,1901 -1744,2007 -1675,2113 -1755,2211 -1834,2309 -1952,2264 -2071,2219 -2064,2093 -2057,1967 -1935,1934 "/>
  <polygon class="fil1 str1" points="-1809,13332 -1740,13438 -1671,13543 -1751,13641 -1830,13739 -1948,13694 -2067,13649 -2060,13523 -2053,13397 -1931,13364 "/>
  <polygon class="fil1 str1" points="-4696,8460 -4627,8566 -4558,8672 -4638,8770 -4717,8868 -4835,8823 -4954,8777 -4947,8651 -4940,8525 -4818,8493 "/>
  <polygon class="fil1 str1" points="-4692,19891 -4623,19996 -4554,20102 -4634,20200 -4713,20298 -4831,20253 -4950,20208 -4943,20082 -4936,19956 -4814,19923 "/>
  <polygon class="fil1 str1" points="5990,2698 6059,2804 6128,2910 6048,3008 5969,3106 5851,3061 5733,3016 5739,2890 5746,2764 5868,2731 "/>
  <polygon class="fil1 str1" points="5994,14129 6063,14235 6132,14340 6052,14438 5973,14536 5855,14491 5736,14446 5743,14320 5750,14194 5872,14161 "/>
  <polygon class="fil2 str0" points="8694,21650 8838,21872 8799,21920 8758,21920 8799,21870 8736,21773 8673,21677 8451,21736 8441,21920 8410,21920 8421,21712 8687,21641 "/>
  <polygon class="fil1 str1" points="-788,-972 -720,-867 -651,-761 -730,-663 -810,-565 -928,-610 -1046,-655 -1040,-781 -1033,-907 -911,-940 "/>
  <polygon class="fil1 str1" points="-900,10875 -831,10981 -762,11086 -842,11184 -922,11282 -1040,11237 -1158,11192 -1151,11066 -1144,10940 -1022,10907 "/>
  <polygon class="fil1 str1" points="2631,5014 2700,5120 2769,5226 2689,5324 2610,5422 2492,5377 2373,5331 2380,5205 2387,5079 2509,5047 "/>
  <polygon class="fil1 str1" points="2635,16445 2704,16550 2773,16656 2693,16754 2614,16852 2495,16807 2377,16762 2384,16636 2391,16510 2513,16477 "/>
  <path class="fil1 str1" d="M4539 2367c0,-14 -12,-26 -26,-26 -15,0 -27,12 -27,26 0,30 24,54 53,54 29,0 53,-24 53,-54 0,-44 -36,-80 -79,-80 -44,0 -80,36 -80,80 0,59 48,107 106,107 58,0 106,-48 106,-107 0,-73 -59,-133 -132,-133 -73,0 -132,60 -132,133 0,89 71,161 158,161 88,0 159,-72 159,-161 0,-103 -83,-186 -185,-186 -102,0 -185,83 -185,186 0,118 94,214 211,214 117,0 212,-96 212,-214"/>
  <path class="fil1 str1" d="M4543 13798c0,-15 -12,-27 -26,-27 -15,0 -27,12 -27,27 0,29 24,53 53,53 29,0 53,-24 53,-53 0,-44 -36,-80 -79,-80 -44,0 -80,36 -80,80 0,59 48,107 106,107 58,0 106,-48 106,-107 0,-74 -59,-134 -132,-134 -73,0 -133,60 -133,134 0,88 71,160 159,160 88,0 159,-72 159,-160 0,-103 -83,-187 -185,-187 -103,0 -185,84 -185,187 0,118 94,213 211,213 117,0 211,-95 211,-213"/>
  <path class="fil1 str1" d="M12398 4959c0,-15 -12,-27 -26,-27 -15,0 -27,12 -27,27 0,29 24,53 53,53 29,0 53,-24 53,-53 0,-45 -36,-81 -79,-81 -44,0 -80,36 -80,81 0,58 48,106 106,106 58,0 106,-48 106,-106 0,-74 -59,-134 -132,-134 -73,0 -132,60 -132,134 0,88 70,160 158,160 88,0 159,-72 159,-160 0,-104 -83,-187 -185,-187 -103,0 -185,83 -185,187 0,117 94,213 211,213 117,0 211,-96 211,-213"/>
  <path class="fil1 str1" d="M12402 16389c0,-15 -12,-27 -26,-27 -15,0 -27,12 -27,27 0,29 24,53 53,53 29,0 53,-24 53,-53 0,-44 -36,-80 -79,-80 -44,0 -80,36 -80,80 0,59 48,107 106,107 58,0 106,-48 106,-107 0,-74 -59,-134 -132,-134 -73,0 -133,60 -133,134 0,88 71,160 159,160 88,0 159,-72 159,-160 0,-103 -83,-187 -185,-187 -103,0 -185,84 -185,187 0,118 94,213 211,213 117,0 211,-95 211,-213"/>
  <path class="fil1 str1" d="M9469 1572c0,-15 -12,-27 -27,-27 -14,0 -26,12 -26,27 0,29 23,53 53,53 29,0 52,-24 52,-53 0,-44 -35,-80 -79,-80 -44,0 -79,36 -79,80 0,59 47,107 106,107 58,0 105,-48 105,-107 0,-74 -59,-134 -132,-134 -73,0 -132,60 -132,134 0,88 71,160 159,160 87,0 158,-72 158,-160 0,-103 -83,-187 -185,-187 -102,0 -185,84 -185,187 0,118 95,213 212,213 116,0 211,-95 211,-213"/>
  <path class="fil1 str1" d="M9472 13002c0,-15 -11,-27 -26,-27 -15,0 -26,12 -26,27 0,30 23,54 52,54 30,0 53,-24 53,-54 0,-44 -35,-80 -79,-80 -44,0 -79,36 -79,80 0,59 47,107 105,107 59,0 106,-48 106,-107 0,-74 -59,-133 -132,-133 -73,0 -132,59 -132,133 0,89 71,160 158,160 88,0 159,-71 159,-160 0,-103 -83,-187 -185,-187 -102,0 -185,84 -185,187 0,118 95,214 211,214 117,0 212,-96 212,-214"/>
  <path class="fil1 str1" d="M8306 5568c0,-15 -12,-27 -27,-27 -14,0 -26,12 -26,27 0,29 24,53 53,53 29,0 53,-24 53,-53 0,-45 -36,-80 -80,-80 -43,0 -79,35 -79,80 0,59 47,106 106,106 58,0 105,-47 105,-106 0,-74 -59,-134 -132,-134 -73,0 -132,60 -132,134 0,88 71,160 159,160 87,0 158,-72 158,-160 0,-104 -83,-187 -185,-187 -102,0 -185,83 -185,187 0,118 95,213 212,213 117,0 211,-95 211,-213"/>
  <path class="fil1 str1" d="M8310 16998c0,-15 -12,-27 -27,-27 -14,0 -26,12 -26,27 0,29 23,53 53,53 29,0 53,-24 53,-53 0,-44 -36,-80 -80,-80 -44,0 -79,36 -79,80 0,59 47,107 106,107 58,0 105,-48 105,-107 0,-74 -59,-133 -132,-133 -73,0 -132,59 -132,133 0,88 71,160 159,160 87,0 158,-72 158,-160 0,-103 -83,-187 -185,-187 -102,0 -185,84 -185,187 0,118 95,214 212,214 116,0 211,-96 211,-214"/>
  <path class="fil1 str1" d="M8285 10028c0,-14 -12,-26 -27,-26 -14,0 -26,12 -26,26 0,30 23,54 53,54 29,0 52,-24 52,-54 0,-44 -35,-80 -79,-80 -44,0 -79,36 -79,80 0,59 47,107 106,107 58,0 105,-48 105,-107 0,-73 -59,-133 -132,-133 -73,0 -132,60 -132,133 0,89 71,161 159,161 87,0 158,-72 158,-161 0,-103 -83,-187 -185,-187 -102,0 -185,84 -185,187 0,118 95,214 212,214 116,0 211,-96 211,-214"/>
  <path class="fil1 str1" d="M7863 21024c0,-15 -12,-27 -27,-27 -14,0 -26,12 -26,27 0,29 24,53 53,53 29,0 53,-24 53,-53 0,-45 -36,-80 -80,-80 -43,0 -79,35 -79,80 0,59 47,106 106,106 58,0 106,-47 106,-106 0,-74 -60,-134 -133,-134 -73,0 -132,60 -132,134 0,88 71,160 159,160 87,0 158,-72 158,-160 0,-104 -82,-187 -185,-187 -102,0 -185,83 -185,187 0,118 95,213 212,213 117,0 211,-95 211,-213"/>
  <path class="fil2 str0" d="M12294 21866c0,-3 -1,-6 -3,-8 -2,-2 -5,-3 -8,-3 -3,0 -5,1 -7,3 -2,2 -3,5 -3,8 0,11 4,20 10,27 7,7 16,11 27,11 10,0 19,-4 26,-11 6,-7 11,-16 11,-27 0,-18 -8,-34 -19,-45 -11,-12 -27,-19 -45,-19 -17,0 -33,7 -45,19 -11,11 -18,27 -18,45 0,20 6,39 17,54l-37 0c-8,-17 -12,-35 -12,-54 0,-26 11,-50 28,-68 17,-17 41,-28 67,-28 26,0 50,11 68,28 17,18 27,42 27,68 0,19 -7,36 -20,49 -1,2 -3,3 -5,5l-87 0c-2,-2 -3,-3 -5,-5 -12,-13 -20,-30 -20,-49 0,-11 5,-22 12,-30 8,-8 18,-12 30,-12 12,0 22,4 30,12 8,8 12,19 12,30l-31 0zm88 54c11,-15 17,-34 17,-54 0,-32 -13,-62 -34,-83 -21,-21 -50,-34 -82,-34 -32,0 -61,13 -82,34 -21,21 -34,51 -34,83 0,19 3,37 10,54l-34 0c-5,-17 -8,-35 -8,-54 0,-41 17,-78 43,-105 27,-27 64,-44 105,-44 41,0 78,17 105,44 27,27 43,64 43,105 0,19 -4,37 -12,54l-37 0zm60 0c7,-17 10,-35 10,-54 0,-47 -19,-90 -49,-121 -31,-31 -73,-50 -120,-50 -47,0 -89,19 -119,50 -31,31 -50,74 -50,121 0,19 3,37 7,54l-32 0c-5,-18 -7,-35 -7,-54 0,-56 23,-106 59,-143 36,-37 87,-60 142,-60 56,0 106,23 142,60 37,37 59,87 59,143 0,19 -3,37 -8,54l-34 0zm56 0c5,-17 7,-35 7,-54l32 0c0,19 -2,36 -6,54l-33 0z"/>
  <path class="fil1 str1" d="M-3632 3616c0,-15 -12,-27 -27,-27 -14,0 -26,12 -26,27 0,29 23,53 53,53 29,0 52,-24 52,-53 0,-45 -35,-80 -79,-80 -44,0 -79,35 -79,80 0,59 47,106 106,106 58,0 105,-47 105,-106 0,-74 -59,-134 -132,-134 -73,0 -132,60 -132,134 0,88 71,160 159,160 87,0 158,-72 158,-160 0,-104 -83,-187 -185,-187 -102,0 -185,83 -185,187 0,118 95,213 212,213 116,0 211,-95 211,-213"/>
  <path class="fil1 str1" d="M-3628 15046c0,-15 -12,-27 -27,-27 -15,0 -26,12 -26,27 0,30 23,53 53,53 29,0 52,-23 52,-53 0,-44 -35,-80 -79,-80 -44,0 -79,36 -79,80 0,59 47,107 106,107 58,0 105,-48 105,-107 0,-74 -59,-133 -132,-133 -73,0 -132,59 -132,133 0,89 71,160 159,160 87,0 158,-71 158,-160 0,-103 -83,-187 -185,-187 -102,0 -185,84 -185,187 0,118 95,214 212,214 116,0 211,-96 211,-214"/>
  <path class="fil1 str1" d="M-4815 6685c0,-14 -12,-26 -27,-26 -14,0 -26,12 -26,26 0,30 23,54 53,54 29,0 52,-24 52,-54 0,-44 -35,-80 -79,-80 -44,0 -79,36 -79,80 0,59 47,107 106,107 58,0 105,-48 105,-107 0,-73 -59,-133 -132,-133 -73,0 -132,60 -132,133 0,89 71,161 159,161 87,0 158,-72 158,-161 0,-103 -83,-186 -185,-186 -102,0 -185,83 -185,186 0,118 95,214 212,214 116,0 211,-96 211,-214"/>
  <path class="fil1 str1" d="M-4811 18116c0,-15 -12,-27 -27,-27 -14,0 -26,12 -26,27 0,29 23,53 53,53 29,0 52,-24 52,-53 0,-44 -35,-80 -79,-80 -44,0 -79,36 -79,80 0,59 47,107 106,107 58,0 105,-48 105,-107 0,-74 -59,-134 -132,-134 -73,0 -132,60 -132,134 0,88 71,160 159,160 87,0 158,-72 158,-160 0,-103 -83,-187 -185,-187 -102,0 -185,84 -185,187 0,118 95,213 212,213 116,0 211,-95 211,-213"/>
  <path class="fil1 str1" d="M-6061 9101c0,-15 -12,-27 -26,-27 -15,0 -27,12 -27,27 0,30 24,54 53,54 29,0 53,-24 53,-54 0,-44 -36,-80 -79,-80 -44,0 -80,36 -80,80 0,59 48,107 106,107 58,0 106,-48 106,-107 0,-74 -59,-133 -132,-133 -73,0 -132,59 -132,133 0,89 71,160 158,160 88,0 159,-71 159,-160 0,-103 -83,-187 -185,-187 -102,0 -185,84 -185,187 0,118 94,214 211,214 117,0 212,-96 212,-214"/>
  <path class="fil1 str1" d="M-6057 20532c0,-15 -12,-27 -26,-27 -15,0 -27,12 -27,27 0,29 24,53 53,53 29,0 53,-24 53,-53 0,-45 -36,-81 -79,-81 -44,0 -80,36 -80,81 0,58 48,106 106,106 58,0 106,-48 106,-106 0,-74 -59,-134 -132,-134 -73,0 -133,60 -133,134 0,88 71,160 159,160 88,0 159,-72 159,-160 0,-104 -83,-187 -185,-187 -103,0 -185,83 -185,187 0,117 94,213 211,213 117,0 211,-96 211,-213"/>
  <path class="fil1 str1" d="M-438 843c0,-15 -11,-27 -26,-27 -15,0 -26,12 -26,27 0,29 23,53 52,53 30,0 53,-24 53,-53 0,-44 -35,-80 -79,-80 -44,0 -79,36 -79,80 0,59 47,107 105,107 59,0 106,-48 106,-107 0,-74 -59,-134 -132,-134 -73,0 -132,60 -132,134 0,88 71,160 158,160 88,0 159,-72 159,-160 0,-103 -83,-187 -185,-187 -102,0 -185,84 -185,187 0,118 95,213 211,213 117,0 212,-95 212,-213"/>
  <path class="fil1 str1" d="M-434 12273c0,-14 -11,-26 -26,-26 -15,0 -27,12 -27,26 0,30 24,54 53,54 30,0 53,-24 53,-54 0,-44 -35,-80 -79,-80 -44,0 -79,36 -79,80 0,59 47,107 105,107 59,0 106,-48 106,-107 0,-73 -59,-133 -132,-133 -73,0 -132,60 -132,133 0,89 71,160 158,160 88,0 159,-71 159,-160 0,-103 -83,-187 -185,-187 -102,0 -185,84 -185,187 0,118 95,214 211,214 117,0 212,-96 212,-214"/>
  <path class="fil1 str1" d="M6374 -702c0,-15 -12,-27 -26,-27 -15,0 -27,12 -27,27 0,30 24,53 53,53 29,0 53,-23 53,-53 0,-44 -36,-80 -79,-80 -44,0 -80,36 -80,80 0,59 48,107 106,107 58,0 106,-48 106,-107 0,-74 -59,-133 -132,-133 -73,0 -132,59 -132,133 0,89 70,160 158,160 88,0 159,-71 159,-160 0,-103 -83,-187 -185,-187 -103,0 -185,84 -185,187 0,118 94,214 211,214 117,0 211,-96 211,-214"/>
  <path class="fil1 str1" d="M6378 10728c0,-14 -12,-26 -26,-26 -15,0 -27,12 -27,26 0,30 24,54 53,54 29,0 53,-24 53,-54 0,-44 -36,-80 -79,-80 -44,0 -80,36 -80,80 0,59 48,107 106,107 58,0 106,-48 106,-107 0,-73 -59,-133 -132,-133 -73,0 -133,60 -133,133 0,89 71,161 159,161 88,0 159,-72 159,-161 0,-103 -83,-186 -185,-186 -103,0 -185,83 -185,186 0,118 94,214 211,214 117,0 211,-96 211,-214"/>
  <path class="fil1 str1" d="M-6208 1876c0,-14 -12,-26 -27,-26 -15,0 -26,12 -26,26 0,30 23,54 53,54 29,0 52,-24 52,-54 0,-44 -35,-80 -79,-80 -44,0 -79,36 -79,80 0,59 47,107 106,107 58,0 105,-48 105,-107 0,-73 -59,-133 -132,-133 -73,0 -132,60 -132,133 0,89 71,161 159,161 87,0 158,-72 158,-161 0,-103 -83,-186 -185,-186 -102,0 -185,83 -185,186 0,118 95,214 212,214 116,0 211,-96 211,-214"/>
  <path class="fil1 str1" d="M-6205 13307c0,-15 -11,-27 -26,-27 -15,0 -26,12 -26,27 0,29 23,53 52,53 30,0 53,-24 53,-53 0,-44 -35,-80 -79,-80 -44,0 -79,36 -79,80 0,59 47,107 105,107 59,0 106,-48 106,-107 0,-74 -59,-134 -132,-134 -73,0 -132,60 -132,134 0,88 71,160 158,160 88,0 159,-72 159,-160 0,-103 -83,-187 -185,-187 -102,0 -185,84 -185,187 0,118 95,213 211,213 117,0 212,-95 212,-213"/>
  <path class="fil1 str1" d="M-2294 7200c0,-15 -11,-27 -26,-27 -15,0 -27,12 -27,27 0,29 24,53 53,53 30,0 53,-24 53,-53 0,-44 -35,-80 -79,-80 -44,0 -79,36 -79,80 0,59 47,107 105,107 59,0 106,-48 106,-107 0,-74 -59,-134 -132,-134 -73,0 -132,60 -132,134 0,88 71,160 158,160 88,0 159,-72 159,-160 0,-103 -83,-187 -185,-187 -102,0 -185,84 -185,187 0,118 95,213 211,213 117,0 212,-95 212,-213"/>
  <path class="fil1 str1" d="M-2290 18630c0,-15 -12,-26 -26,-26 -15,0 -27,11 -27,26 0,30 24,54 53,54 29,0 53,-24 53,-54 0,-44 -35,-80 -79,-80 -44,0 -79,36 -79,80 0,59 47,107 105,107 59,0 106,-48 106,-107 0,-73 -59,-133 -132,-133 -73,0 -132,60 -132,133 0,89 71,160 158,160 88,0 159,-71 159,-160 0,-103 -83,-187 -185,-187 -102,0 -185,84 -185,187 0,118 94,214 211,214 117,0 212,-96 212,-214"/>
  <path class="fil1 str1" d="M10437 7419c0,-14 -12,-26 -27,-26 -14,0 -26,12 -26,26 0,30 23,54 53,54 29,0 52,-24 52,-54 0,-44 -35,-80 -79,-80 -44,0 -79,36 -79,80 0,59 47,107 106,107 58,0 105,-48 105,-107 0,-73 -59,-133 -132,-133 -73,0 -132,60 -132,133 0,89 71,161 159,161 87,0 158,-72 158,-161 0,-103 -83,-186 -185,-186 -102,0 -185,83 -185,186 0,118 95,214 212,214 116,0 211,-96 211,-214"/>
  <path class="fil1 str1" d="M10440 18850c0,-15 -11,-27 -26,-27 -15,0 -26,12 -26,27 0,29 23,53 52,53 30,0 53,-24 53,-53 0,-44 -35,-80 -79,-80 -44,0 -79,36 -79,80 0,59 47,107 105,107 59,0 106,-48 106,-107 0,-74 -59,-134 -132,-134 -73,0 -132,60 -132,134 0,88 71,160 158,160 88,0 159,-72 159,-160 0,-103 -83,-187 -185,-187 -102,0 -185,84 -185,187 0,118 95,213 211,213 117,0 212,-95 212,-213"/>
  <path class="fil1 str1" d="M1226 4792c0,-15 -12,-27 -26,-27 -15,0 -27,12 -27,27 0,29 24,53 53,53 29,0 53,-24 53,-53 0,-45 -35,-80 -79,-80 -44,0 -79,35 -79,80 0,59 47,106 105,106 59,0 106,-47 106,-106 0,-74 -59,-134 -132,-134 -73,0 -132,60 -132,134 0,88 71,160 158,160 88,0 159,-72 159,-160 0,-104 -83,-187 -185,-187 -102,0 -185,83 -185,187 0,118 95,213 211,213 117,0 212,-95 212,-213"/>
  <path class="fil1 str1" d="M1230 16222c0,-15 -12,-27 -26,-27 -15,0 -27,12 -27,27 0,30 24,53 53,53 29,0 53,-23 53,-53 0,-44 -35,-80 -79,-80 -44,0 -80,36 -80,80 0,59 48,107 106,107 59,0 106,-48 106,-107 0,-74 -59,-133 -132,-133 -73,0 -132,59 -132,133 0,88 71,160 158,160 88,0 159,-72 159,-160 0,-103 -83,-187 -185,-187 -102,0 -185,84 -185,187 0,118 94,214 211,214 117,0 212,-96 212,-214"/>
  <path class="fil1 str1" d="M5858 7013c0,-15 -12,-27 -27,-27 -14,0 -26,12 -26,27 0,29 23,53 53,53 29,0 52,-24 52,-53 0,-44 -35,-80 -79,-80 -44,0 -79,36 -79,80 0,59 47,107 106,107 58,0 105,-48 105,-107 0,-74 -59,-134 -132,-134 -73,0 -132,60 -132,134 0,88 71,160 159,160 87,0 158,-72 158,-160 0,-103 -83,-187 -185,-187 -102,0 -185,84 -185,187 0,118 95,213 212,213 116,0 211,-95 211,-213"/>
  <path class="fil1 str1" d="M5861 18443c0,-15 -11,-27 -26,-27 -15,0 -26,12 -26,27 0,30 23,54 52,54 30,0 53,-24 53,-54 0,-44 -35,-80 -79,-80 -44,0 -79,36 -79,80 0,59 47,107 105,107 59,0 106,-48 106,-107 0,-74 -59,-133 -132,-133 -73,0 -132,59 -132,133 0,89 71,160 158,160 88,0 159,-71 159,-160 0,-103 -83,-187 -185,-187 -102,0 -185,84 -185,187 0,118 95,214 211,214 117,0 212,-96 212,-214"/>
  <path class="fil1 str1" d="M488 7706c0,-15 -12,-26 -27,-26 -14,0 -26,11 -26,26 0,30 23,54 53,54 29,0 52,-24 52,-54 0,-44 -35,-80 -79,-80 -44,0 -79,36 -79,80 0,59 47,107 106,107 58,0 105,-48 105,-107 0,-73 -59,-133 -132,-133 -73,0 -132,60 -132,133 0,89 71,160 159,160 87,0 158,-71 158,-160 0,-103 -83,-187 -185,-187 -102,0 -185,84 -185,187 0,118 95,214 212,214 116,0 211,-96 211,-214"/>
  <path class="fil1 str1" d="M491 19137c0,-15 -11,-27 -26,-27 -15,0 -26,12 -26,27 0,29 23,53 52,53 30,0 53,-24 53,-53 0,-45 -35,-80 -79,-80 -44,0 -79,35 -79,80 0,59 47,106 105,106 59,0 106,-47 106,-106 0,-74 -59,-134 -132,-134 -73,0 -132,60 -132,134 0,88 71,160 158,160 88,0 159,-72 159,-160 0,-104 -83,-187 -185,-187 -102,0 -185,83 -185,187 0,118 95,213 211,213 117,0 212,-95 212,-213"/>
  <path class="fil1 str1" d="M2957 9058c0,-15 -12,-27 -27,-27 -14,0 -26,12 -26,27 0,29 23,53 53,53 29,0 53,-24 53,-53 0,-44 -36,-80 -80,-80 -44,0 -79,36 -79,80 0,59 47,107 106,107 58,0 105,-48 105,-107 0,-74 -59,-133 -132,-133 -73,0 -132,59 -132,133 0,88 71,160 159,160 87,0 158,-72 158,-160 0,-103 -83,-187 -185,-187 -102,0 -185,84 -185,187 0,118 95,214 212,214 116,0 211,-96 211,-214"/>
  <path class="fil1 str1" d="M2961 20488c0,-14 -12,-26 -27,-26 -14,0 -26,12 -26,26 0,30 23,54 53,54 29,0 52,-24 52,-54 0,-44 -35,-80 -79,-80 -44,0 -79,36 -79,80 0,59 47,107 106,107 58,0 105,-48 105,-107 0,-73 -59,-133 -132,-133 -73,0 -132,60 -132,133 0,89 71,161 159,161 87,0 158,-72 158,-161 0,-103 -83,-187 -185,-187 -102,0 -185,84 -185,187 0,118 95,214 212,214 116,0 211,-96 211,-214"/>
  <path class="fil1 str1" d="M-723 10047c0,-15 -12,-27 -27,-27 -14,0 -26,12 -26,27 0,29 23,53 53,53 29,0 52,-24 52,-53 0,-45 -35,-80 -79,-80 -44,0 -79,35 -79,80 0,59 47,106 106,106 58,0 105,-47 105,-106 0,-74 -59,-134 -132,-134 -73,0 -132,60 -132,134 0,88 71,160 159,160 87,0 158,-72 158,-160 0,-104 -83,-187 -185,-187 -102,0 -185,83 -185,187 0,118 95,213 212,213 116,0 211,-95 211,-213"/>
  <path class="fil1 str1" d="M-720 21477c0,-15 -11,-27 -26,-27 -15,0 -26,12 -26,27 0,30 23,53 52,53 30,0 53,-23 53,-53 0,-44 -35,-80 -79,-80 -44,0 -79,36 -79,80 0,59 47,107 105,107 59,0 106,-48 106,-107 0,-74 -59,-133 -132,-133 -73,0 -132,59 -132,133 0,88 71,160 158,160 88,0 159,-72 159,-160 0,-103 -83,-187 -185,-187 -102,0 -185,84 -185,187 0,118 95,214 211,214 117,0 212,-96 212,-214"/>
  <polygon class="fil1 str1" points="-6389,-52 -6281,55 -6173,162 -6281,270 -6389,377 -6496,270 -6604,162 -6496,55 "/>
  <polygon class="fil1 str1" points="-6385,11378 -6277,11485 -6169,11593 -6277,11700 -6385,11807 -6492,11700 -6600,11593 -6492,11485 "/>
  <polygon class="fil1 str1" points="3910,-733 4018,-625 4125,-518 4018,-411 3910,-304 3802,-411 3695,-518 3802,-625 "/>
  <polygon class="fil1 str1" points="3329,10585 3436,10692 3544,10799 3436,10906 3329,11014 3221,10906 3113,10799 3221,10692 "/>
  <polygon class="fil1 str1" points="11084,-820 11192,-712 11299,-605 11192,-498 11084,-391 10976,-498 10869,-605 10976,-712 "/>
  <polygon class="fil1 str1" points="11088,10611 11195,10718 11303,10825 11195,10932 11088,11040 10980,10932 10873,10825 10980,10718 "/>
  <polygon class="fil1 str1" points="8063,-425 8171,-318 8278,-211 8171,-103 8063,4 7955,-103 7848,-211 7955,-318 "/>
  <polygon class="fil5 str2" points="8067,11005 8174,11112 8282,11220 8174,11327 8067,11434 7959,11327 7852,11220 7959,11112 "/>
  <polygon class="fil1 str1" points="-3523,6498 -3415,6606 -3308,6713 -3415,6820 -3523,6927 -3631,6820 -3738,6713 -3631,6606 "/>
  <polygon class="fil1 str1" points="-3519,17929 -3412,18036 -3304,18143 -3412,18251 -3519,18358 -3627,18251 -3734,18143 -3627,18036 "/>
  <polygon class="fil1 str1" points="-3471,10148 -3363,10255 -3255,10362 -3363,10470 -3471,10577 -3578,10470 -3686,10362 -3578,10255 "/>
  <polygon class="fil1 str1" points="-2792,21425 -2685,21532 -2577,21640 -2685,21747 -2792,21854 -2900,21747 -3008,21640 -2900,21532 "/>
  <polygon class="fil1 str1" points="1293,1533 1401,1640 1509,1747 1401,1854 1293,1962 1186,1854 1078,1747 1186,1640 "/>
  <polygon class="fil1 str1" points="1297,12963 1405,13070 1512,13178 1405,13285 1297,13392 1190,13285 1082,13178 1190,13070 "/>
  <polygon class="fil1 str1" points="10297,3017 10405,3125 10513,3232 10405,3339 10297,3447 10190,3339 10082,3232 10190,3125 "/>
  <polygon class="fil1 str1" points="10301,14448 10409,14555 10517,14662 10409,14770 10301,14877 10194,14770 10086,14662 10194,14555 "/>
  <polygon class="fil1 str1" points="-5427,4962 -5320,5069 -5212,5177 -5320,5284 -5427,5391 -5535,5284 -5643,5177 -5535,5069 "/>
  <polygon class="fil1 str1" points="-5423,16392 -5316,16500 -5208,16607 -5316,16714 -5423,16822 -5531,16714 -5639,16607 -5531,16500 "/>
  <polygon class="fil1 str1" points="-2091,442 -1983,550 -1876,657 -1983,764 -2091,871 -2199,764 -2306,657 -2199,550 "/>
  <polygon class="fil1 str1" points="-2087,11873 -1979,11980 -1872,12087 -1979,12195 -2087,12302 -2195,12195 -2302,12087 -2195,11980 "/>
  <polygon class="fil1 str1" points="-1686,4361 -1578,4468 -1470,4576 -1578,4683 -1686,4790 -1793,4683 -1901,4576 -1793,4468 "/>
  <polygon class="fil1 str1" points="-1682,15792 -1574,15899 -1467,16006 -1574,16113 -1682,16221 -1789,16113 -1897,16006 -1789,15899 "/>
  <polygon class="fil1 str1" points="3078,3871 3186,3978 3293,4085 3186,4193 3078,4300 2970,4193 2863,4085 2970,3978 "/>
  <polygon class="fil1 str1" points="3082,15301 3190,15408 3297,15516 3190,15623 3082,15730 2974,15623 2867,15516 2974,15408 "/>
  <polygon class="fil1 str1" points="8540,7021 8648,7129 8755,7236 8648,7343 8540,7451 8432,7343 8325,7236 8432,7129 "/>
  <polygon class="fil1 str1" points="8544,18452 8652,18559 8759,18666 8652,18774 8544,18881 8436,18774 8329,18666 8436,18559 "/>
  <polygon class="fil1 str1" points="6632,4085 6740,4192 6847,4300 6740,4407 6632,4514 6525,4407 6417,4300 6525,4192 "/>
  <polygon class="fil1 str1" points="6636,15515 6744,15623 6851,15730 6744,15837 6636,15945 6528,15837 6421,15730 6528,15623 "/>
  <polygon class="fil1 str1" points="674,-770 782,-716 889,-662 889,-555 889,-448 782,-394 674,-341 566,-394 459,-448 459,-555 459,-662 566,-716 "/>
  <polygon class="fil1 str1" points="678,10661 786,10714 893,10768 893,10875 893,10983 786,11036 678,11090 570,11036 463,10983 463,10875 463,10768 570,10714 "/>
  <polygon class="fil1 str1" points="6562,252 6669,306 6777,360 6777,467 6777,574 6669,628 6562,681 6454,628 6346,574 6346,467 6346,360 6454,306 "/>
  <polygon class="fil1 str1" points="6565,11683 6673,11736 6781,11790 6781,11897 6781,12004 6673,12058 6565,12112 6458,12058 6350,12004 6350,11897 6350,11790 6458,11736 "/>
  <polygon class="fil1 str1" points="11720,415 11828,468 11935,522 11935,629 11935,737 11828,790 11720,844 11612,790 11505,737 11505,629 11505,522 11612,468 "/>
  <polygon class="fil1 str1" points="11724,11845 11831,11899 11939,11952 11939,12060 11939,12167 11831,12221 11724,12274 11616,12221 11509,12167 11509,12060 11509,11952 11616,11899 "/>
  <polygon class="fil1 str1" points="-2957,5240 -2908,5131 -2859,5021 -2752,5016 -2644,5010 -2585,5115 -2527,5220 -2575,5329 -2624,5439 -2731,5444 -2839,5449 -2898,5345 "/>
  <polygon class="fil1 str1" points="-2953,16671 -2904,16561 -2856,16451 -2748,16446 -2641,16441 -2582,16545 -2523,16650 -2571,16760 -2620,16869 -2727,16875 -2835,16880 -2894,16775 "/>
  <polygon class="fil1 str1" points="-2845,8570 -2796,8460 -2748,8350 -2640,8345 -2533,8340 -2474,8445 -2415,8549 -2463,8659 -2512,8769 -2619,8774 -2727,8779 -2786,8674 "/>
  <polygon class="fil1 str1" points="-2841,20000 -2792,19890 -2744,19781 -2636,19776 -2529,19770 -2470,19875 -2411,19979 -2459,20089 -2508,20199 -2615,20204 -2723,20209 -2782,20105 "/>
  <polygon class="fil1 str1" points="-6446,3540 -6338,3594 -6231,3648 -6231,3755 -6231,3862 -6338,3916 -6446,3970 -6554,3916 -6661,3862 -6661,3755 -6661,3648 -6554,3594 "/>
  <polygon class="fil1 str1" points="-6442,14971 -6334,15024 -6227,15078 -6227,15185 -6227,15293 -6334,15346 -6442,15400 -6550,15346 -6657,15293 -6657,15185 -6657,15078 -6550,15024 "/>
  <polygon class="fil1 str1" points="4657,3485 4765,3538 4873,3592 4873,3699 4873,3806 4765,3860 4657,3914 4550,3860 4442,3806 4442,3699 4442,3592 4550,3538 "/>
  <polygon class="fil1 str1" points="4661,14915 4769,14969 4876,15022 4876,15129 4876,15237 4769,15290 4661,15344 4554,15290 4446,15237 4446,15129 4446,15022 4554,14969 "/>
  <polygon class="fil1 str1" points="9795,9691 9903,9744 10011,9798 10011,9905 10011,10013 9903,10066 9795,10120 9688,10066 9580,10013 9580,9905 9580,9798 9688,9744 "/>
  <polygon class="fil1 str1" points="9799,21121 9907,21175 10014,21228 10014,21336 10014,21443 9907,21497 9799,21550 9692,21497 9584,21443 9584,21336 9584,21228 9692,21175 "/>
  <polygon class="fil1 str1" points="8774,2634 8882,2687 8990,2741 8990,2848 8990,2956 8882,3009 8774,3063 8667,3009 8559,2956 8559,2848 8559,2741 8667,2687 "/>
  <polygon class="fil1 str1" points="8778,14064 8886,14118 8994,14171 8994,14279 8994,14386 8886,14440 8778,14493 8671,14440 8563,14386 8563,14279 8563,14171 8671,14118 "/>
  <polygon class="fil1 str1" points="7034,7255 7141,7309 7249,7362 7249,7470 7249,7577 7141,7630 7034,7684 6926,7630 6819,7577 6819,7470 6819,7362 6926,7309 "/>
  <polygon class="fil1 str1" points="7038,18685 7145,18739 7253,18793 7253,18900 7253,19007 7145,19061 7038,19114 6930,19061 6822,19007 6822,18900 6822,18793 6930,18739 "/>
  <polygon class="fil1 str1" points="4567,6289 4675,6343 4782,6396 4782,6504 4782,6611 4675,6665 4567,6718 4459,6665 4352,6611 4352,6504 4352,6396 4459,6343 "/>
  <polygon class="fil1 str1" points="4571,17720 4679,17773 4786,17827 4786,17934 4786,18041 4679,18095 4571,18149 4463,18095 4356,18041 4356,17934 4356,17827 4463,17773 "/>
  <polygon class="fil1 str1" points="1549,7363 1657,7417 1765,7471 1765,7578 1765,7685 1657,7739 1549,7793 1442,7739 1334,7685 1334,7578 1334,7471 1442,7417 "/>
  <polygon class="fil1 str1" points="1553,18794 1661,18847 1769,18901 1769,19008 1769,19116 1661,19169 1553,19223 1446,19169 1338,19116 1338,19008 1338,18901 1446,18847 "/>
  <polygon class="fil1 str1" points="-95,8431 13,8485 120,8539 120,8646 120,8753 13,8807 -95,8861 -203,8807 -310,8753 -310,8646 -310,8539 -203,8485 "/>
  <polygon class="fil1 str1" points="-91,19862 17,19915 124,19969 124,20076 124,20184 17,20237 -91,20291 -199,20237 -306,20184 -306,20076 -306,19969 -199,19915 "/>
  <polygon class="fil1 str1" points="4552,8755 4660,8809 4767,8862 4767,8970 4767,9077 4660,9130 4552,9184 4444,9130 4337,9077 4337,8970 4337,8862 4444,8809 "/>
  <polygon class="fil1 str1" points="4556,20185 4664,20239 4771,20293 4771,20400 4771,20507 4664,20561 4556,20615 4448,20561 4341,20507 4341,20400 4341,20293 4448,20239 "/>
  <polygon class="fil1 str1" points="901,5764 1009,5818 1116,5872 1116,5979 1116,6086 1009,6140 901,6193 794,6140 686,6086 686,5979 686,5872 794,5818 "/>
  <polygon class="fil1 str1" points="905,17195 1013,17248 1120,17302 1120,17409 1120,17516 1013,17570 905,17624 797,17570 690,17516 690,17409 690,17302 797,17248 "/>
  <polygon class="fil6 str3" points="-3536,42 -3497,60 -3837,455 -3875,437 "/>
  <polygon class="fil6 str3" points="-3532,11472 -3493,11490 -3833,11885 -3871,11867 "/>
  <polygon class="fil6 str3" points="-3824,51 -3863,69 -3523,464 -3485,446 "/>
  <polygon class="fil6 str3" points="-3820,11481 -3859,11499 -3520,11894 -3481,11877 "/>
  <polygon class="fil6 str3" points="1034,84 1073,102 733,497 695,479 "/>
  <polygon class="fil6 str3" points="1038,11515 1077,11532 737,11928 699,11910 "/>
  <polygon class="fil6 str3" points="746,93 707,111 1047,506 1085,489 "/>
  <polygon class="fil6 str3" points="750,11524 711,11541 1050,11937 1089,11919 "/>
  <polygon class="fil6 str3" points="-5427,2528 -5389,2545 -5728,2941 -5766,2923 "/>
  <polygon class="fil6 str3" points="-5423,13958 -5385,13976 -5724,14371 -5762,14353 "/>
  <polygon class="fil6 str3" points="-5715,2537 -5754,2555 -5415,2950 -5376,2932 "/>
  <polygon class="fil6 str3" points="-5711,13967 -5750,13985 -5411,14380 -5372,14362 "/>
  <polygon class="fil6 str3" points="-5705,7516 -5667,7533 -6006,7929 -6044,7911 "/>
  <polygon class="fil6 str3" points="-5701,18946 -5663,18964 -6002,19359 -6040,19341 "/>
  <polygon class="fil6 str3" points="-5993,7525 -6032,7542 -5693,7938 -5654,7920 "/>
  <polygon class="fil6 str3" points="-5989,18955 -6028,18973 -5689,19368 -5650,19350 "/>
  <polygon class="fil6 str3" points="2160,2979 2198,2997 1859,3392 1821,3374 "/>
  <polygon class="fil6 str3" points="2164,14409 2202,14427 1863,14822 1824,14804 "/>
  <polygon class="fil6 str3" points="1871,2988 1833,3006 2172,3401 2211,3383 "/>
  <polygon class="fil6 str3" points="1875,14418 1837,14436 2176,14831 2215,14814 "/>
  <g id="_2585800717248">
   <polygon class="fil6 str3" points="-1163,7783 -1124,7801 -1464,8196 -1502,8178 "/>
   <polygon class="fil6 str3" points="-1451,7792 -1490,7810 -1150,8205 -1112,8187 "/>
  </g>
  <g id="_2585800714688">
   <polygon class="fil6 str3" points="-1159,19213 -1120,19231 -1460,19626 -1498,19608 "/>
   <polygon class="fil6 str3" points="-1447,19222 -1486,19240 -1146,19635 -1108,19618 "/>
  </g>
  <g id="_2585800713472">
   <polygon class="fil6 str3" points="5276,7952 5314,7970 4975,8365 4937,8347 "/>
   <polygon class="fil6 str3" points="4987,7961 4949,7979 5288,8374 5327,8356 "/>
  </g>
  <g id="_2585800714528">
   <polygon class="fil6 str3" points="5280,19382 5318,19400 4979,19795 4940,19777 "/>
   <polygon class="fil6 str3" points="4991,19391 4953,19409 5292,19804 5331,19787 "/>
  </g>
  <g id="_2585800711616">
   <polygon class="fil6 str3" points="4385,9928 4423,9946 4084,10341 4045,10324 "/>
   <polygon class="fil6 str3" points="4096,9938 4058,9955 4397,10351 4436,10333 "/>
  </g>
  <g id="_2585800711808">
   <polygon class="fil6 str3" points="4228,21172 4267,21190 3927,21585 3889,21567 "/>
   <polygon class="fil6 str3" points="3940,21181 3901,21199 4240,21594 4279,21576 "/>
  </g>
  <g id="_2585800709536">
   <polygon class="fil6 str3" points="3004,5902 3042,5920 2703,6315 2664,6297 "/>
   <polygon class="fil6 str3" points="2715,5911 2677,5929 3016,6324 3055,6306 "/>
  </g>
  <g id="_2585800709952">
   <polygon class="fil6 str3" points="3008,17332 3046,17350 2707,17745 2668,17727 "/>
   <polygon class="fil6 str3" points="2719,17341 2681,17359 3020,17754 3058,17736 "/>
  </g>
  <g id="_2585800711040">
   <polygon class="fil6 str3" points="1514,9090 1553,9108 1214,9503 1175,9485 "/>
   <polygon class="fil6 str3" points="1226,9099 1188,9117 1527,9512 1565,9494 "/>
  </g>
  <g id="_2585800707232">
   <polygon class="fil6 str3" points="1518,20520 1557,20538 1218,20933 1179,20916 "/>
   <polygon class="fil6 str3" points="1230,20529 1192,20547 1531,20942 1569,20925 "/>
  </g>
  <polygon class="fil6 str3" points="-3355,9034 -3317,9052 -3656,9447 -3694,9429 "/>
  <polygon class="fil6 str3" points="-3351,20464 -3313,20482 -3652,20877 -3691,20860 "/>
  <polygon class="fil6 str3" points="-3644,9043 -3682,9061 -3343,9456 -3304,9438 "/>
  <polygon class="fil6 str3" points="-3640,20474 -3678,20491 -3339,20887 -3300,20869 "/>
  <polygon class="fil6 str3" points="-2291,3213 -2253,3231 -2592,3626 -2631,3608 "/>
  <polygon class="fil6 str3" points="-2287,14643 -2249,14661 -2588,15056 -2627,15038 "/>
  <polygon class="fil6 str3" points="-2580,3222 -2618,3240 -2279,3635 -2240,3617 "/>
  <polygon class="fil6 str3" points="-2576,14652 -2614,14670 -2275,15065 -2237,15048 "/>
  <polygon class="fil6 str3" points="8079,8016 8117,8034 7778,8429 7740,8412 "/>
  <polygon class="fil6 str3" points="8083,19447 8121,19465 7782,19860 7744,19842 "/>
  <polygon class="fil6 str3" points="7791,8026 7752,8043 8091,8439 8130,8421 "/>
  <polygon class="fil6 str3" points="7795,19456 7756,19474 8095,19869 8134,19851 "/>
  <polygon class="fil6 str3" points="11316,9387 11354,9404 11015,9800 10976,9782 "/>
  <polygon class="fil6 str3" points="11320,20817 11358,20835 11019,21230 10980,21212 "/>
  <polygon class="fil6 str3" points="11027,9396 10989,9413 11328,9809 11367,9791 "/>
  <polygon class="fil6 str3" points="11031,20826 10993,20844 11332,21239 11370,21221 "/>
  <polygon class="fil6 str3" points="11014,4932 11053,4950 10714,5345 10675,5327 "/>
  <polygon class="fil6 str3" points="11018,16362 11057,16380 10718,16775 10679,16758 "/>
  <polygon class="fil6 str3" points="10726,4941 10688,4959 11027,5354 11065,5336 "/>
  <polygon class="fil6 str3" points="10730,16372 10692,16389 11031,16785 11069,16767 "/>
  <polygon class="fil6 str3" points="5385,-292 5423,-274 5084,121 5045,103 "/>
  <polygon class="fil6 str3" points="5388,11139 5427,11156 5088,11552 5049,11534 "/>
  <polygon class="fil6 str3" points="5096,-283 5058,-265 5397,130 5435,112 "/>
  <polygon class="fil6 str3" points="5100,11148 5062,11165 5401,11561 5439,11543 "/>
  <polygon class="fil1 str1" points="-5211,-86 -5209,128 -5207,343 -5423,258 -5638,173 -5424,44 "/>
  <polygon class="fil1 str1" points="-5207,11344 -5205,11559 -5203,11773 -5419,11688 -5634,11604 -5420,11474 "/>
  <polygon class="fil1 str1" points="8882,417 8884,631 8886,846 8670,761 8455,676 8669,546 "/>
  <polygon class="fil1 str1" points="8886,11847 8888,12062 8889,12276 8674,12191 8459,12106 8672,11977 "/>
  <polygon class="fil0 str0" points="3047,-927 3050,-522 2568,-712 2921,-927 2982,-927 2639,-718 3018,-569 3016,-760 3015,-927 "/>
  <polygon class="fil1 str1" points="-652,1634 -650,1849 -649,2063 -864,1978 -1079,1893 -866,1764 "/>
  <polygon class="fil1 str1" points="-648,13065 -646,13279 -645,13494 -860,13409 -1075,13324 -862,13194 "/>
  <path class="fil1 str1" d="M3954 165c119,0 216,96 216,214 0,119 -97,215 -216,215 -119,0 -215,-96 -215,-215 0,-118 96,-214 215,-214z"/>
  <path class="fil1 str1" d="M3958 11595c119,0 216,96 216,215 0,118 -97,214 -216,214 -119,0 -215,-96 -215,-214 0,-119 96,-215 215,-215z"/>
  <path class="fil2 str0" d="M-3229 -921c0,64 -25,122 -67,163 -42,42 -100,68 -164,68 -64,0 -121,-26 -163,-68 -42,-41 -68,-99 -68,-163l32 0c0,55 22,105 58,141 36,36 86,58 141,58 55,0 105,-22 141,-58 36,-36 59,-86 59,-141l31 0z"/>
  <path class="fil1 str1" d="M-3025 2350c119,0 216,96 216,215 0,118 -97,214 -216,214 -118,0 -215,-96 -215,-214 0,-119 97,-215 215,-215z"/>
  <path class="fil1 str1" d="M-3021 13780c119,0 216,96 216,215 0,119 -97,215 -216,215 -119,0 -215,-96 -215,-215 0,-119 96,-215 215,-215z"/>
  <polygon class="fil1 str1" points="10699,15 10749,179 10914,179 10780,280 10832,444 10699,342 10566,444 10617,280 10483,179 10648,179 "/>
  <polygon class="fil1 str1" points="10703,11445 10753,11609 10918,11609 10784,11710 10836,11874 10703,11772 10569,11874 10621,11710 10487,11609 10652,11609 "/>
  <polygon class="fil1 str1" points="2774,1415 2825,1579 2990,1579 2856,1680 2907,1844 2774,1742 2641,1844 2692,1680 2559,1579 2724,1579 "/>
  <polygon class="fil1 str1" points="2778,12845 2829,13009 2993,13009 2860,13110 2911,13274 2778,13173 2645,13274 2696,13110 2563,13009 2728,13009 "/>
  <polygon class="fil1 str1" points="6902,9855 6953,10019 7118,10018 6984,10120 7035,10284 6902,10182 6769,10284 6821,10120 6687,10018 6852,10019 "/>
  <polygon class="fil1 str1" points="6906,21285 6957,21449 7122,21449 6988,21550 7039,21714 6906,21612 6773,21714 6824,21550 6691,21449 6856,21449 "/>
  <polygon class="fil1 str1" points="1499,9959 1549,10123 1714,10123 1581,10224 1632,10388 1499,10286 1366,10388 1417,10224 1284,10123 1448,10123 "/>
  <polygon class="fil1 str1" points="1503,21389 1553,21553 1718,21553 1585,21654 1636,21818 1503,21717 1370,21818 1421,21654 1287,21553 1452,21553 "/>
  <polygon class="fil1 str1" points="2003,8293 2053,8457 2218,8457 2085,8558 2136,8722 2003,8620 1870,8722 1921,8558 1788,8457 1952,8457 "/>
  <polygon class="fil1 str1" points="2007,19723 2057,19887 2222,19887 2089,19988 2140,20152 2007,20050 1874,20152 1925,19988 1791,19887 1956,19887 "/>
  <polygon class="fil1 str1" points="2042,6503 2092,6667 2257,6667 2124,6768 2175,6932 2042,6830 1909,6932 1960,6768 1826,6667 1991,6667 "/>
  <polygon class="fil1 str1" points="2046,17933 2096,18098 2261,18097 2127,18199 2179,18363 2046,18261 1913,18363 1964,18199 1830,18097 1995,18098 "/>
  <polygon class="fil1 str1" points="7402,-736 7452,-572 7617,-572 7483,-471 7535,-307 7402,-409 7269,-307 7320,-471 7186,-572 7351,-572 "/>
  <polygon class="fil1 str1" points="7406,10694 7456,10859 7621,10858 7487,10959 7539,11123 7406,11022 7272,11123 7324,10959 7190,10858 7355,10859 "/>
  <polygon class="fil1 str1" points="-4615,7316 -4564,7480 -4399,7480 -4533,7581 -4481,7745 -4615,7643 -4748,7745 -4696,7581 -4830,7480 -4665,7480 "/>
  <polygon class="fil1 str1" points="-4611,18746 -4560,18910 -4395,18910 -4529,19011 -4478,19175 -4611,19074 -4744,19175 -4692,19011 -4826,18910 -4661,18910 "/>
  <polygon class="fil1 str1" points="5555,730 5624,836 5693,941 5613,1039 5534,1137 5416,1092 5297,1047 5304,921 5311,795 5433,762 "/>
  <polygon class="fil1 str1" points="5559,12160 5628,12266 5697,12372 5617,12470 5538,12568 5419,12523 5301,12477 5308,12351 5315,12225 5437,12193 "/>
  <path class="fil1 str1" d="M-5770 4173c0,-15 -12,-27 -27,-27 -14,0 -26,12 -26,27 0,29 23,53 53,53 29,0 53,-24 53,-53 0,-45 -36,-80 -80,-80 -44,0 -79,35 -79,80 0,59 47,106 106,106 58,0 105,-47 105,-106 0,-74 -59,-134 -132,-134 -73,0 -132,60 -132,134 0,88 71,160 159,160 87,0 158,-72 158,-160 0,-104 -83,-187 -185,-187 -102,0 -185,83 -185,187 0,118 95,213 212,213 116,0 211,-95 211,-213"/>
  <path class="fil1 str1" d="M-5766 15603c0,-15 -12,-27 -27,-27 -14,0 -26,12 -26,27 0,29 23,53 53,53 29,0 52,-24 52,-53 0,-44 -35,-80 -79,-80 -44,0 -79,36 -79,80 0,59 47,107 106,107 58,0 105,-48 105,-107 0,-74 -59,-133 -132,-133 -73,0 -132,59 -132,133 0,88 71,160 159,160 87,0 158,-72 158,-160 0,-103 -83,-187 -185,-187 -102,0 -185,84 -185,187 0,118 95,214 212,214 116,0 211,-96 211,-214"/>
  <path class="fil1 str1" d="M7087 3249c0,-15 -12,-27 -27,-27 -14,0 -26,12 -26,27 0,29 23,53 53,53 29,0 53,-24 53,-53 0,-45 -36,-80 -80,-80 -44,0 -79,35 -79,80 0,59 47,106 106,106 58,0 105,-47 105,-106 0,-74 -59,-134 -132,-134 -73,0 -132,60 -132,134 0,88 71,160 159,160 87,0 158,-72 158,-160 0,-104 -83,-187 -185,-187 -102,0 -185,83 -185,187 0,118 95,213 212,213 116,0 211,-95 211,-213"/>
  <path class="fil1 str1" d="M7091 14679c0,-15 -12,-27 -27,-27 -14,0 -26,12 -26,27 0,30 23,53 53,53 29,0 52,-23 52,-53 0,-44 -35,-80 -79,-80 -44,0 -79,36 -79,80 0,59 47,107 106,107 58,0 105,-48 105,-107 0,-74 -59,-133 -132,-133 -73,0 -132,59 -132,133 0,88 71,160 159,160 87,0 158,-72 158,-160 0,-103 -83,-187 -185,-187 -102,0 -185,84 -185,187 0,118 95,214 212,214 116,0 211,-96 211,-214"/>
  <polygon class="fil1 str1" points="-5870,-953 -5762,-900 -5654,-846 -5654,-739 -5654,-631 -5762,-578 -5870,-524 -5977,-578 -6085,-631 -6085,-739 -6085,-846 -5977,-900 "/>
  <polygon class="fil1 str1" points="-5866,10477 -5758,10531 -5651,10584 -5651,10692 -5651,10799 -5758,10853 -5866,10906 -5973,10853 -6081,10799 -6081,10692 -6081,10584 -5973,10531 "/>
  <polygon class="fil6 str3" points="9565,-692 9604,-674 9264,-279 9226,-297 "/>
  <polygon class="fil6 str3" points="9569,10738 9607,10756 9268,11151 9230,11133 "/>
  <polygon class="fil6 str3" points="9277,-683 9238,-665 9577,-270 9616,-288 "/>
  <polygon class="fil6 str3" points="9281,10747 9242,10765 9581,11160 9620,11142 "/>
  <polygon class="fil6 str3" points="7531,2270 7570,2287 7231,2683 7192,2665 "/>
  <polygon class="fil6 str3" points="7535,13700 7574,13718 7234,14113 7196,14095 "/>
  <polygon class="fil6 str3" points="7243,2279 7204,2297 7544,2692 7582,2674 "/>
  <polygon class="fil6 str3" points="7247,13709 7208,13727 7548,14122 7586,14104 "/>
  <polygon class="fil6 str3" points="10871,1151 10909,1169 10570,1564 10531,1546 "/>
  <polygon class="fil6 str3" points="10875,12581 10913,12599 10574,12994 10535,12977 "/>
  <polygon class="fil6 str3" points="10582,1160 10544,1178 10883,1573 10922,1555 "/>
  <polygon class="fil6 str3" points="10586,12591 10548,12608 10887,13004 10925,12986 "/>
  <polygon class="fil6 str3" points="180,4209 219,4227 -121,4622 -159,4604 "/>
  <polygon class="fil6 str3" points="184,15639 223,15657 -117,16052 -155,16035 "/>
  <polygon class="fil6 str3" points="-108,4218 -147,4236 193,4631 231,4613 "/>
  <polygon class="fil6 str3" points="-104,15649 -143,15666 196,16062 235,16044 "/>
  <polygon class="fil6 str3" points="12531,-559 12569,-541 12230,-146 12192,-164 "/>
  <polygon class="fil6 str3" points="12535,10872 12573,10889 12234,11285 12196,11267 "/>
  <polygon class="fil6 str3" points="12242,-550 12204,-532 12543,-137 12582,-154 "/>
  <polygon class="fil6 str3" points="12246,10881 12208,10899 12547,11294 12586,11276 "/>
  <polygon class="fil6 str3" points="5565,4646 5604,4664 5264,5059 5226,5042 "/>
  <polygon class="fil6 str3" points="5569,16077 5607,16095 5268,16490 5230,16472 "/>
  <polygon class="fil6 str3" points="5277,4656 5238,4673 5578,5069 5616,5051 "/>
  <polygon class="fil6 str3" points="5281,16086 5242,16104 5581,16499 5620,16481 "/>
 </g>
</svg>
